<?xml version="1.0" encoding="UTF-8"?>
<!DOCTYPE svg PUBLIC "-//W3C//DTD SVG 1.1//EN" "http://www.w3.org/Graphics/SVG/1.1/DTD/svg11.dtd">
<!-- Creator: CorelDRAW 2020 (64-Bit) -->
<svg xmlns="http://www.w3.org/2000/svg" xml:space="preserve" width="174.196mm" height="130.647mm" version="1.1" style="shape-rendering:geometricPrecision; text-rendering:geometricPrecision; image-rendering:optimizeQuality; fill-rule:evenodd; clip-rule:evenodd"
viewBox="0 0 7837.2 5877.89"
 xmlns:xlink="http://www.w3.org/1999/xlink"
 xmlns:xodm="http://www.corel.com/coreldraw/odm/2003">
 <defs>
  <style type="text/css">
   <![CDATA[
    .fil1 {fill:#FEFEFE}
    .fil0 {fill:black;fill-rule:nonzero}
   ]]>
  </style>
 </defs>
 <g id="Capa_x0020_1">
  <metadata id="CorelCorpID_0Corel-Layer"/>
  <path class="fil0" d="M5094.18 2547.09c-108.19,0 -195.93,87.74 -195.93,195.93 0,108.19 87.74,195.93 195.93,195.93 108.19,0 195.93,-87.74 195.93,-195.93 0,-108.19 -87.74,-195.93 -195.93,-195.93l0 -0zm2547.09 1371.51l-587.79 0 0 -1959.3c-0,-1081.91 -877.39,-1959.3 -1959.31,-1959.3l-4310.45 -0c-432.76,0 -783.71,350.96 -783.71,783.72l-0.01 3134.88c0.01,432.76 350.96,783.71 783.73,783.71l391.85 0c0.01,649.14 526.44,1175.57 1175.59,1175.57 649.14,0 1175.58,-526.44 1175.58,-1175.58l4114.52 0c108.18,-0 195.93,-87.75 195.93,-195.93l0 -391.85c-0,-108.2 -87.75,-195.94 -195.93,-195.94l0 0.01zm-5290.11 1371.51c-324.57,-0 -587.78,-263.22 -587.78,-587.79 0,-324.58 263.22,-587.79 587.79,-587.79 324.57,0 587.79,263.22 587.79,587.79 -0.29,324.51 -263.28,587.5 -587.75,587.79l-0.04 0zm3134.88 -1371.51l-1567.44 0 0 -2351.16c0,-216.37 175.47,-391.85 391.85,-391.85l783.72 -0c216.38,0 391.86,175.49 391.86,391.86l0 2351.16z"/>
  <path class="fil1" d="M3075.61 2524.91c168.76,0 305.58,-136.68 305.58,-305.3l0 -651.34c0,-168.58 -136.8,-305.31 -305.58,-305.31l-2078.95 0c-168.64,0 -305.36,136.73 -305.36,305.31l-0.15 651.33c0,168.62 136.7,305.3 305.32,305.3l2079.14 0z"/>
 </g>
</svg>
