<?xml version="1.0" encoding="UTF-8"?>
<!DOCTYPE svg PUBLIC "-//W3C//DTD SVG 1.1//EN" "http://www.w3.org/Graphics/SVG/1.1/DTD/svg11.dtd">
<!-- Creator: CorelDRAW 2020 (64-Bit) -->
<svg xmlns="http://www.w3.org/2000/svg" xml:space="preserve" width="190.667mm" height="63.5559mm" version="1.1" style="shape-rendering:geometricPrecision; text-rendering:geometricPrecision; image-rendering:optimizeQuality; fill-rule:evenodd; clip-rule:evenodd"
viewBox="0 0 19066.66 6355.59"
 xmlns:xlink="http://www.w3.org/1999/xlink"
 xmlns:xodm="http://www.corel.com/coreldraw/odm/2003">
 <defs>
  <style type="text/css">
   <![CDATA[
    .fil0 {fill:#201E1E}
    .fil2 {fill:#2C4F34}
    .fil1 {fill:#EF6E2C}
   ]]>
  </style>
     <clipPath id="id0">
      <path d="M8503.7 1777.84l4074.65 0 -343.64 2374.71 -4074.65 0 343.64 -2374.71z"/>
     </clipPath>
     <clipPath id="id1">
      <path d="M2175.71 3956.68l16294.79 0 -546.6 2398.91 -16294.79 0 546.6 -2398.91z"/>
     </clipPath>
 </defs>
 <g id="Capa_x0020_1">
  <metadata id="CorelCorpID_0Corel-Layer"/>
  <g id="_2725495864576">
   <path class="fil0" d="M7763.8 1910.78c87.22,-57.02 136.35,-23.45 193.89,-59.77 54.81,-34.6 37.47,-58.38 51.42,-154.23 174.36,-12.65 262.35,39.1 272.13,209.07 8.63,149.9 -11.76,267.86 -151.1,308.46 -87.32,21.83 -97.47,28.04 -151.65,89.72 5.29,3.21 15.07,-0.57 17.62,5.88 2.53,6.38 395.01,-22.78 439.76,-55.76 74.65,-62.06 57.96,-170.86 88.96,-277.86l142.02 -1.73c33.01,86.79 3.86,104.75 51.31,177.15l472.72 -79.6c108.54,-178.22 -57.41,-102.42 227.55,-237.8 -26.15,-125.93 -33.39,-42.51 -61.13,-165.62 249.17,25.65 384.57,159.98 563.67,3.89 283.48,-247.07 331.43,-14.82 553.43,-31.81 149.85,-280.97 27.81,-362.02 171.94,-560.57 119.02,29.94 46.6,10.65 131.21,75.42 41.85,32.04 39.22,46.01 100.27,45.51l13.43 -189.49c-318,-198.18 -22.11,-213.78 -111.55,-633.4 -9.14,-42.89 -17.45,-27.69 -10.8,-83.44 14.15,-118.58 -10.24,-29.37 31.1,-73.1 92.8,-67.13 286.88,-20.94 365.18,39.81 240.53,186.63 250.28,962.77 251.94,1263.96 272.95,132.94 201.2,155.73 370.34,337.09 103.88,111.4 161.23,43.37 221.1,145.88 40.83,69.92 -27.29,123.32 218.51,173.99 3.87,-358.22 29.22,-245.87 -334.38,-610.6 -55.11,-55.28 -116.29,-92.02 -175.53,-137.1 2.23,-151.18 34.02,-143.03 47.69,-270.17 22.27,-207.11 1.08,-110.88 86.74,-259.67 522.89,-12.72 402.18,360.07 702.67,508.68 278.74,137.84 248.87,181.65 376.21,235.19 142.18,59.79 107.02,-8.45 224.8,89.31 123.21,102.28 480.99,218.4 642.24,284.24 270.83,110.59 168.77,136.78 236.09,400.61 57.52,225.42 221.74,87.64 229.26,381.58 5.69,222.43 -22.21,408.14 -28.43,599.74 -17.78,423.66 -58.18,443.93 100.98,439.21 44.97,-185.56 -31.56,-257.12 33.61,-315.64l122.46 -76.41c93.57,-92.7 353.62,-237.66 523.41,-235.52 90.67,145.92 84.46,372.23 275.25,401.79 135.15,20.94 539.02,53.81 649.42,29.53 -35.47,-169.24 -37.08,-105.49 -229.96,-156.04 -265.85,-69.68 -375.69,-341.68 -539.99,-512.75 -119.94,-124.88 -242.33,-203.08 -353.05,-334.53 -57.98,-68.84 -91.1,-130.14 -150.15,-194.79 -73.58,-80.57 -138.18,-80.59 -159.09,-187.85 152.75,-28.62 522.53,336.95 614.99,446.66 160.9,190.92 148.56,92.19 309.66,218.85 110.82,87.13 183.02,172.42 303.16,253.97 251.24,170.54 1259.92,634.35 1624.85,529.88 -35.86,-94.52 -79.68,-106 -197.83,-132.99 -321.33,-73.39 -417.54,-82.19 -729.79,-221.62 -411.9,-183.93 -504.48,-205.74 -790.12,-480.29 -216.77,-208.35 -433.3,-410.23 -660.04,-610.04 -89.94,-79.26 -62.84,-106.17 -129.32,-187.98 -44.59,-54.88 -118.49,-93.79 -175.21,-142.41 -117.75,-100.93 -55.79,-67.56 -123.16,-198.26 -57.66,-111.86 -123.02,-42.98 -107.08,-216.49 86.42,20.74 84.15,57.46 183.72,89.26 96.49,30.82 162.99,22.54 249.13,69.38 77.84,42.34 249.07,266.91 279.4,331.15 197.92,419.26 367.39,197.21 850.73,394.01 242.41,98.69 221.7,82.01 475.99,129.81 355.46,66.81 211.54,211.59 574.49,347.59 222.23,83.27 232.03,401.27 573.37,364.12 -19.5,-119.28 -186.01,-145.08 -334.28,-442.01 -121.81,-243.97 -145.28,-201.66 -367.21,-243.75 -177.59,-33.68 -41.49,-135.14 -453.8,-157.65 -134.7,-7.36 -218.28,-56.07 -328.04,-86.63 -405.04,-112.77 -71.54,121.91 -537.81,-283.76 -80.1,-69.69 -136.16,-107.75 -214.18,-183.16 -63.2,-61.08 -142.32,-145.03 -204.39,-194.22 -92.52,-73.32 -148.94,-59.36 -258.04,-136.44 -159.4,-112.62 -358.58,-176.88 -533.04,-289.13 -132.1,-85 -97.31,-135.02 -173.97,-245.83 -66.32,-95.85 21.19,-34.66 -115.05,-78.28 -129.78,-41.55 -374.82,-170.08 -511.1,-97.04 -41.29,48.8 -66.62,100.09 -112.18,149.15 -151.99,163.69 -316.15,230.84 -525.87,316.31 -170.97,69.67 -231.28,126.92 -390.75,-12.63 -121.77,-106.56 -116.85,-233.71 -224.85,-357.61 -161.68,-185.5 -360.87,-51.42 -558.18,-262.28 -54.95,-58.72 -92.07,-74.15 -154.37,-136.34 -52.3,-52.2 -70.14,-104.63 -115.44,-150.17 -154.24,-155.02 -313.67,-243.72 -552.21,-316.97 -384.14,-117.97 -604.02,67.85 -828.46,215.47 -425.04,279.55 -1745.72,1256.89 -2140.56,1211.72 -136.92,-15.67 -308.87,-108.89 -440.43,-59.02 -134.09,50.85 -233.94,179.09 -416.18,132.53 -146.6,-37.45 -96.34,-143.7 -331.06,-226.41 -588.61,-207.43 -673.08,-588.95 -1125.67,-552.85 -277.44,22.13 -292.93,278.53 -414.89,419.81 -40.56,46.98 -89.56,78.25 -145.68,144.31 -168.47,198.31 -419.82,274.98 -689.23,422.41 -97.72,53.48 -249.91,142.27 -344.73,210.32 -104.6,75.08 -238.73,197.07 -338.47,238.15 -294.66,121.36 -575.33,161.98 -864.1,258.33 -179.43,59.87 -207.06,110.48 -302.42,249.22 -95.66,139.18 -271.34,102.62 -433.85,147.13 -41.25,84.07 -57.26,85.64 -28.03,183.72 85.22,31.44 478.87,-4.42 155.22,314.29 -91.33,89.94 -348.97,244.61 -375.01,353.38 240.26,39.22 509.04,-181.57 636.18,-277.85 185.91,-140.8 442.4,-218.93 593.94,-358.35 236.86,-217.92 152.08,-182.77 504.07,-448.53 483.55,-365.08 454.4,-112.79 469.22,-496.36 140.11,-125.6 347.1,-265.69 565.04,-255.24 70.27,81.87 130.85,260.36 188.92,311.65 158.95,19.25 52.13,19.34 160.4,-51.66 41.85,-27.45 96.58,-50.06 139.08,-71.75 13.87,-211.93 -35.29,-182.59 49.65,-381.66 57.33,-134.34 69.71,-166.84 138.17,-276.74 228.62,32.73 362.88,343.53 317.39,566.02l-321.76 535.67c-82.22,163.38 -154.57,360.73 -411.57,437.04 -162.23,48.17 -165.76,83.89 -324.52,106.93 -151.62,22.01 -186.43,86.36 -324.08,80.77 -11.33,-188.44 213.95,-290.31 167.88,-590.65 -171.85,-9.42 -238.58,261.42 -312.82,403.62 -83.86,160.65 -208.81,330.88 -329.92,434.76 -111.33,95.47 -551.19,327.41 -734.47,399.52 -134.19,52.8 -185.65,65.26 -206.91,210.44 252.62,-18.47 373.63,-90.59 546.94,-211.5l460.12 -277.96c171.6,-112.9 317.2,-209.65 488.75,1.77 352.63,434.59 612.97,205.32 1211.43,267.41 130.37,13.53 352.11,155.12 525.82,216.82 183.95,65.34 1151.73,140.18 1096.65,-195.15 -289.26,-62.53 -465.79,131.8 -932.72,88.85 -141.75,-13.03 -186.72,-29.55 -259.17,-114.72 -271.15,-318.74 -760.27,-25.78 -1200.4,-200.31 7.23,-140.39 155.39,-422.97 232.2,-490.5 144.79,-127.28 290.54,-90.07 457.53,-283.55l443.36 -295.52c131.83,-48.54 192.44,24.7 272.65,57.81 92.9,38.36 196.48,35.19 315.74,52.17 6.92,270.71 -76.02,140 -138.13,285.96 -45.27,106.38 6.9,97.53 14.39,107.88 117.14,69.39 208.03,-80.94 305.69,-133.31 190.73,-102.29 490.9,-240.45 651.47,-354.46 136.49,-96.92 222.77,-58.87 305.02,-221.66 20.77,-115.59 -152.21,-281.12 96.62,-366.79z"/>
   <g>
    <g style="clip-path:url(#id0)">
     <image x="8160.06" y="1777.84" width="4418.29" height="2374.71" xlink:href="LOGO eliana_Images\LOGO eliana_ImgID1.png"/>
    </g>
   </g>
   <g>
    <path class="fil1" d="M12002.45 3732.78l6.29 -841.15 -838.27 0.91 -3.68 300.52 395.24 5.08c-0.17,54.43 3.21,115.37 2.54,165.99 -0.31,23.28 0.01,54.47 -3.69,76.99l-20.44 66.51c-76.36,219.16 -1031.83,-14.57 -767.55,-694.42 222.13,-571.42 965.93,-278.83 1144.96,-254.51l0.99 -345.07c-1789.93,-447.05 -2107.66,1283.97 -1074.25,1597.04 324.93,98.43 885.51,103.75 1157.86,-77.89z"/>
    <path class="fil2" d="M10043.95 3780.39l4.41 -347.12c-248.52,62.21 -450.34,161.54 -740.4,60.97 -601.68,-208.61 -515.57,-1343.36 732.56,-960.96l8.13 -360.03c-1626.61,-405.52 -2016.23,1184.79 -1093.06,1594.73 345.78,153.55 736,99.55 1088.36,12.41z"/>
   </g>
   <g>
    <g style="clip-path:url(#id1)">
     <image x="1629.11" y="3956.68" width="16841.39" height="2398.91" xlink:href="LOGO eliana_Images\LOGO eliana_ImgID2.png"/>
    </g>
   </g>
   <g>
    <path class="fil2" d="M6874.16 4409.23l-21.67 -176.71 -625.31 1.63 -1.84 1251.64 629.08 13.99c21.61,-550.15 -121.16,-990.65 337.01,-993.73 244.59,-1.65 326.43,105.92 334.62,332.53 7.87,217.71 -6.45,439.79 3.39,659l621.96 0.82c19.74,-412.32 -136.92,-985.01 336.28,-992.4 471.44,-7.37 314.53,437.99 343.57,992.03l618.69 0.33c10.09,-272.75 33.81,-763.26 -52.31,-1014.01 -84.19,-245.15 -508.06,-302.04 -789.41,-267.6 -255.69,31.31 -336.74,107.15 -496.02,212.46 -355.4,-342.6 -834.93,-270.13 -1238.04,-19.98z"/>
    <path class="fil2" d="M11371.53 5023.41c-179.13,378.27 -1045.69,209.77 -770.15,-320.89 184.13,-354.64 1031.84,-231.73 770.15,320.89zm-792.43 -608.91l-6.1 -179.23 -625.92 -3.59 0.03 1843.19 626.27 3.93 2.26 -721.86c161.05,62.78 194.53,137.23 427.91,161.48 1183.26,122.91 1410.31,-1095.32 503.6,-1290.11 -475.52,-102.15 -678.62,56.61 -928.05,186.19z"/>
    <path class="fil2" d="M12971.58 4722.02c130.54,-319.05 474.72,-282.64 621.93,-199.78 91.61,51.57 83.45,86.2 104.95,213.35l-726.88 -13.57zm1137.34 710.54l7.57 -270.4c-179.4,11.42 -1036.48,266.46 -1130.9,-185.58l1307.51 0.08c2.64,-285.6 -14.63,-407.96 -180.41,-551.36 -429.07,-371.12 -1425.3,-234.02 -1659.23,117.63 -94.07,141.43 -146.83,377.27 -57.92,567.5 77.46,165.72 227.06,263.07 411.47,330.77 365.83,134.3 928.87,104.62 1301.91,-8.64z"/>
    <path class="fil2" d="M4487.4 5167.87c-5.29,-269.05 245.72,-247.77 652.16,-264.25 -5.34,218.38 -48.11,278.41 -231.14,323.98 -183.76,45.76 -312.65,12.6 -421.02,-59.73zm-397.27 -863.82l1.07 291.86c225.32,-50.39 962.34,-311.29 1040.4,80.43 -396.86,21.54 -1261.15,28.84 -1235.98,501.72 12.06,226.53 269.78,327.12 518.15,344.45 302.04,21.07 507.91,-38.85 687.68,-182.45 4.63,5.6 7.75,9.17 9.11,19.82 26.63,209.73 108.13,138.29 624.51,138.27 20.48,-586.94 94.3,-980.82 -310.7,-1194.22 -332.39,-175.13 -975.82,-75.26 -1334.24,0.12z"/>
    <path class="fil2" d="M17088.1 5190.48c-299.71,171.41 -655.66,3.68 -949.83,-37.2 1.24,231.7 -69.61,304.78 140.34,336.6 143.31,21.73 289.32,34.26 437.99,37.06 1173.54,22.12 1124.71,-550.81 754.55,-702.01 -101.42,-41.44 -253.01,-75.72 -374.91,-101.24 -151.29,-31.68 -306.11,-35.61 -321.67,-176.53 193.55,-167.74 581.96,-46.6 812.89,3.89l1.39 -295.35c-1405.19,-272.18 -1823.82,457.28 -1121.55,672.56 384.25,117.8 604.43,65.48 620.8,262.22z"/>
    <path class="fil2" d="M3641.77 5446.01l-0.31 -299.88c-245.03,34.61 -353.92,115.92 -654.9,61.55 -200.42,-36.2 -379.55,-143.14 -362.43,-364.27 31.64,-408.59 654.95,-368.1 1011.29,-253.98l6.76 -326.95c-623.11,-159.51 -1638.27,-34.83 -1666.96,602.81 -29.47,655.05 1080.78,784.67 1666.55,580.72z"/>
    <path class="fil2" d="M15296.48 4440.96l-5.56 -208.36 -632.75 -0.48 -1.48 1260.44 634 6.52c10.05,-204.3 -28.81,-646.66 55.25,-787.54 120.3,-201.6 393.62,-133.54 646.82,-141.62 0.57,-315.32 81.41,-392.81 -266.4,-348.99 -319.7,40.28 -322.55,161.16 -429.88,220.03z"/>
   </g>
   <path class="fil0" d="M-0 3812.16c94.43,30.61 133.97,-14.44 207.74,-52.79 98.41,-51.16 147.13,-48.93 261.65,-79.93 157.54,-42.65 100.84,-59.45 196.03,-126.25 56.6,-39.72 167.35,-73.31 234.07,-108.45 146.88,-77.35 268.11,-150.77 458.16,-200.93 93.88,-24.78 176.35,-40.98 267.07,-73.65 146.15,-52.64 170.51,-67.7 205.91,-155.36 -393.37,-5.32 -701.78,172.37 -1001.67,305.98 -342.94,152.79 -46.07,-18.8 -442.76,220.13 -170.78,102.87 -380.46,78 -386.2,271.25z"/>
   <path class="fil0" d="M17809.84 3282.99c21.43,101.6 210.19,181.39 325.64,216.69 88.82,27.15 373.59,178.39 450.3,58.94 164.35,-255.92 -619.65,-366.94 -775.94,-275.63z"/>
   <path class="fil0" d="M6781.68 3071.32c65.4,155.94 148.57,54.87 277.67,238.55 105.92,150.69 306.22,188.71 266.85,-44.43 -21.68,-128.37 -99.36,-294.07 -181.81,-335.65 -141.98,-71.6 -332.92,87.78 -362.71,141.53z"/>
   <path class="fil0" d="M12986.18 2972.77c60.03,0.1 55.27,-19.18 46.44,28.09 67.85,-17.68 57.51,-10.33 71.55,29.24 72,-22.52 64.14,-18.03 94.13,18.43 88.41,-30.69 32.98,23.56 57.8,-60.74 -48.56,10.02 -34.49,15.14 -18.68,-34.37 -47.42,9.81 -34.85,16.33 -22.96,-32.8 -54.84,-23.68 -63.58,-14.96 -100.68,-79.74 -48.27,9.09 -43.09,23.08 -34.53,-21.03l-45.14 -10.57c-52.99,15.46 -42.41,28.33 -42.41,-23.46 -148.74,-86.24 -238.74,-106.49 -417.72,-67.79 6.8,133.06 22.01,149.82 157.97,187.31 95.55,26.34 153.71,29 254.23,67.43z"/>
   <path class="fil0" d="M7819.34 2524l33.68 13.6 156.06 0.29 -65.99 -43.34c-3.53,-2.34 -11.48,-7.78 -17.26,-11.61l10.67 -88.54c-18.33,-6.16 -52.18,-16.14 -57.2,-15.86 -38.08,2.14 -20.94,3.24 -41.18,15.99l-18.78 129.47z"/>
   <path class="fil0" d="M18900.99 3771.44c-4.76,5.5 -14.95,6.88 -13.71,16.95 0.92,7.51 -0.09,13.62 1.36,16.2 2.01,3.59 10.88,10.38 16.43,15.45 17.83,48.68 -0.68,65.29 63.65,74.97 112.51,16.93 81.49,-34.76 96.38,-56.26l-160.03 -18.71 -4.08 -48.6 113.09 -7.33c-10.08,48.35 -25.18,45.84 18.69,32.86 -19.36,57.01 -28.2,41.51 33.32,41.51 -3.7,-58.77 14.92,-54.37 -33.32,-41.51 16.97,-51.34 32.01,-48.01 -18.69,-32.86 -17.5,-32.79 56.47,-33.73 -51.52,-29.23 -99.72,4.15 -26.08,-10.32 -61.57,36.56z"/>
   <path class="fil0" d="M13034.11 2809.28l45.14 10.57c-8.56,44.11 -13.74,30.12 34.53,21.03 37.1,64.78 45.84,56.06 100.68,79.74 -11.89,49.13 -24.46,42.61 22.96,32.8 -15.81,49.51 -29.88,44.39 18.68,34.37 -24.82,84.3 30.61,30.05 -57.8,60.74 -29.99,-36.46 -22.13,-40.95 -94.13,-18.43 -14.04,-39.57 -3.7,-46.92 -71.55,-29.24 8.83,-47.27 13.59,-27.99 -46.44,-28.09 0,62.14 -13.47,49.81 46.44,28.09l71.55 29.24 94.13 18.43 86.31 7.93c1.71,-140.25 4.34,-27.88 -28.51,-68.67 15.02,-49.53 29.35,-44.76 -18.68,-34.37 16.46,-51.26 28.53,-44.11 -22.96,-32.8l-100.68 -79.74c6.38,-49.08 14.19,-37.26 -34.53,-21.03l-45.14 -10.57 -42.41 -23.46c0,51.79 -10.58,38.92 42.41,23.46z"/>
   <path class="fil0" d="M18900.99 3771.44l4.08 48.6 160.03 18.71 0.99 -0.27c-61.52,0 -52.68,15.5 -33.32,-41.51 -43.87,12.98 -28.77,15.49 -18.69,-32.86l-113.09 7.33z"/>
  </g>
 </g>
</svg>
