<?xml version="1.0" encoding="UTF-8"?>
<!DOCTYPE svg PUBLIC "-//W3C//DTD SVG 1.1//EN" "http://www.w3.org/Graphics/SVG/1.1/DTD/svg11.dtd">
<!-- Creator: CorelDRAW 2019 (64-Bit) -->
<svg xmlns="http://www.w3.org/2000/svg" xml:space="preserve" width="13.9213cm" height="4cm" version="1.1" style="shape-rendering:geometricPrecision; text-rendering:geometricPrecision; image-rendering:optimizeQuality; fill-rule:evenodd; clip-rule:evenodd"
viewBox="0 0 13909.67 3996.67"
 xmlns:xlink="http://www.w3.org/1999/xlink"
 xmlns:xodm="http://www.corel.com/coreldraw/odm/2003">
 <defs>
  <style type="text/css">
   <![CDATA[
    .str0 {stroke:#FEFEFE;stroke-width:49.96;stroke-miterlimit:22.9256}
    .str1 {stroke:white;stroke-width:49.96;stroke-miterlimit:22.9256}
    .fil2 {fill:#FEFEFE}
    .fil1 {fill:#201E1E}
    .fil0 {fill:#FEFEFE;fill-rule:nonzero}
   ]]>
  </style>
     <clipPath id="id0">
      <path d="M4097.25 611.46l7329.12 0 29.2 1322.62 -7329.12 0 -29.2 -1322.62z"/>
     </clipPath>
     <clipPath id="id1">
      <path d="M11501.87 564.48l1460.11 0 37.06 1678.58 -1460.11 0 -37.06 -1678.58z"/>
     </clipPath>
     <clipPath id="id2">
      <path d="M4171.78 1980.01l9705.9 0 31.98 1449.08 -9705.9 0 -31.98 -1449.08z"/>
     </clipPath>
 </defs>
 <g id="Capa_x0020_1">
  <metadata id="CorelCorpID_0Corel-Layer"/>
  <g id="_2373252380176">
   <g>
    <g style="clip-path:url(#id0)">
     <image x="4097.25" y="611.46" width="7358.32" height="1322.62" xlink:href="LOGO camper_Images\LOGO camper_ImgID1.png"/>
    </g>
   </g>
   <path class="fil0 str0" d="M5028.12 1397.24l86.65 64.19c-39.58,75.16 -94.14,133.19 -163.14,173.58 -68.73,40.39 -147.1,60.71 -235.09,60.71 -129.44,0 -236.42,-42.78 -320.94,-128.1 -84.25,-85.32 -126.5,-193.64 -126.5,-324.96 0,-131.59 42.25,-240.17 126.77,-325.49 84.78,-85.32 191.5,-128.11 320.41,-128.11 79.96,0 152.98,17.39 218.78,52.43 65.79,35.03 119.28,85.05 160.47,149.77l-90.13 64.2c-27.01,-51.62 -66.32,-92.27 -117.41,-121.43 -51.08,-29.16 -108.31,-43.86 -171.44,-43.86 -97.08,0 -177.58,33.43 -241.24,100.03 -63.66,66.6 -95.48,150.84 -95.48,252.48 0,101.91 31.82,186.14 95.48,252.48 63.66,66.32 144.16,99.49 241.24,99.49 67.93,0 128.11,-16.85 180.8,-50.28 52.7,-33.43 96.29,-82.37 130.79,-147.1zm679.35 -57.77l380.85 0 -191.23 -382.99 -189.62 382.99zm-278.96 333.78l423.92 -864.95 89.33 0 428.73 864.95 -116.88 0 -117.41 -232.69 -477.94 0 -114.46 232.69 -115.27 0zm1319.64 0l0 -864.95 99.5 0 349.83 529.56 351.44 -529.56 97.89 0 0 864.95 -105.91 0 0 -675.32 -343.41 511.63 -343.41 -511.63 0 675.32 -105.91 0zm1505.8 -479.81l381.92 0c54.29,0 95.48,-12.04 123.3,-36.11 28.09,-23.8 42,-59.1 42,-105.64 0,-45.2 -13.91,-80.77 -42,-105.91 -27.82,-25.41 -67.13,-37.98 -117.95,-37.98l-387.27 0 0 285.64zm-107.52 479.81l0 -864.95 496.4 0c83.98,0 150.04,20.86 198.18,62.59 48.41,41.73 72.48,98.96 72.48,171.44 0,75.16 -23.27,136.14 -70.07,182.41 -46.54,46.53 -108.86,69.8 -186.41,69.8l-403.05 0 0 378.71 -107.52 0zm1196.34 0l0 -864.95 680.4 0 0 99.5 -572.88 0 0 253.55 346.62 0 0 99.49 -346.62 0 0 312.92 608.18 0 0 99.5 -715.7 0zm1229.78 -479.81l381.92 0c54.29,0 95.48,-12.04 123.3,-36.11 28.09,-23.8 42,-59.1 42,-105.64 0,-45.2 -13.91,-80.77 -42,-105.91 -27.82,-25.41 -67.13,-37.98 -117.95,-37.98l-387.27 0 0 285.64zm-107.52 479.81l0 -864.95 496.4 0c84.52,0 150.57,21.4 198.71,63.93 47.88,42.52 71.95,101.37 71.95,176.51 0,62.59 -18.72,116.08 -56.16,160.75 -37.72,44.66 -87.2,72.48 -148.71,83.44l216.1 380.32 -118.75 0 -216.37 -378.71 -335.65 0 0 378.71 -107.52 0z"/>
   <g>
    <g style="clip-path:url(#id1)">
     <image x="11501.87" y="564.48" width="1497.17" height="1678.58" xlink:href="LOGO camper_Images\LOGO camper_ImgID2.png"/>
    </g>
   </g>
   <path class="fil0 str0" d="M12580.27 1485.15l80.33 87.54c-51.39,45.3 -99.82,85.02 -144.98,119.42 30.56,30.2 71.4,71.32 122.81,123.62 39.75,41.67 74.65,79.7 104.4,114.1l-162.56 0 -154.72 -163.61c-97.12,79.99 -175.82,132.57 -236.68,156.9 -60.6,24.61 -124.71,36.92 -192.05,36.92 -89.81,0 -161.77,-26.57 -216.13,-79.7 -54.36,-53.15 -81.41,-119.42 -81.41,-198.85 0,-59.85 18.11,-119.98 54.63,-180.11 36.52,-60.13 110.9,-136.2 223.15,-228.21 -62.75,-79.98 -103.05,-138.99 -121.17,-177.03 -17.87,-38.04 -26.79,-74.4 -26.79,-109.08 0,-60.13 22.45,-109.91 67.08,-149.35 51.66,-46.14 116.03,-69.07 192.87,-69.07 48.68,0 92.76,10.06 132.8,30.2 40.04,20.41 70.61,47.54 91.7,81.66 21.09,34.12 31.64,70.48 31.64,108.79 0,40.28 -13.8,83.35 -41.12,128.93 -27.59,45.87 -81.95,104.04 -162.83,175.07l176.9 191.86 115.5 120.82c61.68,-48.11 110.63,-88.38 146.61,-120.82zm-510.96 -281.92c56.26,-45.3 99,-89.78 127.4,-133.68 20.01,-31.04 30.02,-58.73 30.02,-82.79 0,-27.69 -12.99,-51.74 -39.23,-72.15 -25.97,-20.13 -60.59,-30.2 -103.86,-30.2 -41.12,0 -74.66,10.35 -100.63,31.04 -25.7,20.97 -38.68,45.58 -38.68,73.83 0,21.82 5.14,42.51 15.69,61.53 25.97,46.43 62.21,97.33 109.28,152.42zm-15.42 160.82c-98.47,76.91 -163.11,137.88 -193.67,183.47 -30.56,45.3 -45.72,87.54 -45.72,126.13 0,45.58 18.66,86.14 56.26,121.37 37.6,34.96 83.58,52.59 137.95,52.59 41.4,0 81.7,-8.95 121.46,-26.57 62.49,-27.97 133.63,-74.96 213.96,-141.24l-183.94 -194.37c-31.65,-34.68 -67.08,-74.96 -106.3,-121.38z"/>
   <g>
    <g style="clip-path:url(#id2)">
     <image x="4171.78" y="1980.01" width="9737.89" height="1449.08" xlink:href="LOGO camper_Images\LOGO camper_ImgID3.png"/>
    </g>
   </g>
   <path class="fil0 str0" d="M4357.66 3056.39l0 -864.95 680.4 0 0 99.5 -572.88 0 0 253.55 346.62 0 0 99.49 -346.62 0 0 312.92 608.18 0 0 99.5 -715.7 0zm1223.37 -80.23l-53.23 -110.73 120.63 0 43.05 91.2c67.66,-26.48 120.36,-69 158.07,-127.31 37.98,-58.3 56.96,-125.97 56.96,-203.26 0,-101.91 -31.82,-186.14 -95.48,-252.75 -63.92,-66.59 -144.42,-100.03 -241.51,-100.03 -97.09,0 -177.59,33.43 -241.51,100.03 -63.66,66.6 -95.48,150.84 -95.48,252.48 0,101.37 31.55,185.08 94.41,251.14 62.85,66.06 142.55,99.23 239.37,99.23l14.71 0zm46.27 99.49c-8.82,1.07 -17.93,1.88 -27.55,2.41 -9.36,0.54 -22.73,0.8 -39.86,0.8 -124.36,0 -228.4,-43.05 -312.38,-129.17 -83.71,-86.39 -125.71,-194.18 -125.71,-323.89 0,-131.59 42.25,-240.17 127.04,-325.49 84.51,-85.32 191.23,-128.11 320.4,-128.11 129.45,0 236.7,42.79 322.02,128.64 85.05,85.59 127.57,193.91 127.57,324.96 0,98.43 -24.61,184.55 -74.09,258.62 -49.21,74.36 -118.75,129.98 -208.62,166.89l58.04 119.02 -120.62 0 -46.27 -94.68zm622.93 -884.2l0 560.05c0,89.6 16.86,149.78 50.55,180.53 33.7,30.49 99.77,45.73 198.72,45.73 98.69,0 164.75,-15.24 198.18,-45.73 33.42,-30.75 50.01,-90.93 50.01,-180.53l0 -560.05 107.52 0 0 588.94c0,106.44 -27.55,182.94 -82.91,229.21 -55.36,46.26 -146.57,69.26 -273.34,69.26 -126.77,0 -217.98,-23 -273.33,-69.26 -55.36,-46.27 -82.91,-122.77 -82.91,-229.21l0 -588.94 107.51 0zm803.21 864.95l0 -869.76 109.12 0 0 869.76 -109.12 0zm429.03 -479.81l381.92 0c54.29,0 95.48,-12.04 123.3,-36.11 28.09,-23.8 42,-59.1 42,-105.64 0,-45.2 -13.91,-80.77 -42,-105.91 -27.82,-25.41 -67.13,-37.98 -117.95,-37.98l-387.27 0 0 285.64zm-107.52 479.81l0 -864.95 496.4 0c83.98,0 150.04,20.86 198.18,62.59 48.41,41.73 72.48,98.96 72.48,171.44 0,75.16 -23.27,136.14 -70.07,182.41 -46.54,46.53 -108.86,69.8 -186.41,69.8l-403.05 0 0 378.71 -107.52 0zm912.06 -333.78l380.85 0 -191.23 -382.99 -189.62 382.99zm-278.96 333.78l423.92 -864.95 89.33 0 428.73 864.95 -116.88 0 -117.41 -232.69 -477.94 0 -114.46 232.69 -115.27 0zm1025.73 0l0 -864.95 99.5 0 349.83 529.56 351.44 -529.56 97.89 0 0 864.95 -105.91 0 0 -675.32 -343.41 511.63 -343.41 -511.63 0 675.32 -105.91 0zm1110.78 0l0 -869.76 109.12 0 0 869.76 -109.12 0zm326.33 0l0 -864.95 680.4 0 0 99.5 -572.88 0 0 253.55 346.62 0 0 99.49 -346.62 0 0 312.92 608.18 0 0 99.5 -715.7 0zm833.16 0l0 -864.95 56.43 0 561.38 646.44 0 -646.44 107.52 0 0 864.95 -54.82 0 -562.99 -646.43 0 646.43 -107.52 0zm1091.52 0l0 -765.45 -364.28 0 0 -99.5 836.06 0 0 99.5 -364.27 0 0 765.45 -107.52 0zm854.29 -78.63c97.09,0 177.59,-33.16 241.51,-99.49 63.66,-66.33 95.48,-150.57 95.48,-252.48 0,-102.16 -31.82,-186.68 -95.21,-253.01 -63.39,-66.33 -144.16,-99.5 -241.78,-99.5 -97.09,0 -177.59,33.43 -241.51,100.03 -63.66,66.6 -95.48,150.84 -95.48,252.48 0,101.91 31.82,186.14 95.48,252.48 63.92,66.32 144.42,99.49 241.51,99.49zm-0.27 101.1c-129.71,0 -236.69,-42.78 -320.94,-128.1 -84.25,-85.32 -126.5,-193.64 -126.5,-324.96 0,-131.59 42.25,-240.17 127.04,-325.49 84.51,-85.32 191.23,-128.11 320.4,-128.11 129.45,0 236.7,42.79 322.02,128.64 85.05,85.59 127.57,193.91 127.57,324.96 0,131.32 -42.52,239.64 -127.31,324.96 -84.78,85.32 -192.3,128.1 -322.28,128.1z"/>
   <path class="fil1" d="M1998.33 0c1103.65,0 1998.33,894.68 1998.33,1998.33 0,1103.65 -894.68,1998.33 -1998.33,1998.33 -1103.65,0 -1998.33,-894.68 -1998.33,-1998.33 0,-1103.65 894.68,-1998.33 1998.33,-1998.33z"/>
   <polygon class="fil0" points="759.6,2939.39 949.52,2939.39 1528.59,1482.37 1903.04,2408.98 2092.99,2408.98 1546.81,1057.29 1507.94,1057.29 "/>
   <polygon class="fil0" points="2091.44,2405.65 2458.38,1482.37 3047.16,2939.39 3237.08,2939.39 2476.59,1057.29 2437.72,1057.29 1901.61,2405.65 "/>
   <polygon class="fil2" points="1730.96,1929.17 1528.12,1393.69 1328.63,1929.17 "/>
   <polygon class="fil2" points="2655.87,1943.05 2453.03,1407.57 2253.54,1943.05 "/>
   <path class="fil2 str1" d="M3362.57 2793.46c-226.92,-25.84 -193.78,60.08 -343.77,210.2 -344,344.31 -836.43,493.06 -1342.95,384.06 -585.76,-126.05 -1089.5,-648.9 -1116.76,-1335.66 -42.48,-1070.13 1078.38,-1810.21 2059.39,-1343.97 570.48,271.14 401.14,494.36 743.89,498.87 -199.79,-495.02 -1008.96,-950.92 -1792.5,-729.25 -1556.56,440.35 -1519.45,2604.58 -16.51,3032.42 739.04,210.38 1412.57,-93.1 1809.2,-716.68z"/>
  </g>
 </g>
</svg>
