<?xml version="1.0" encoding="iso-8859-1"?>
<!-- Generator: Adobe Illustrator 17.1.0, SVG Export Plug-In . SVG Version: 6.00 Build 0)  -->
<!DOCTYPE svg PUBLIC "-//W3C//DTD SVG 1.1//EN" "http://www.w3.org/Graphics/SVG/1.1/DTD/svg11.dtd">
<svg version="1.1" id="Capa_1" xmlns="http://www.w3.org/2000/svg" xmlns:xlink="http://www.w3.org/1999/xlink" x="0px" y="0px"
	 viewBox="0 0 490 490" style="enable-background:new 0 0 490 490;" xml:space="preserve">
<g>
	<path d="M410.389,365.31c0,15.411-12.488,27.897-27.899,27.897c-15.405,0-27.898-12.485-27.898-27.897
		c0-15.407,12.493-27.905,27.898-27.905C397.9,337.405,410.389,349.903,410.389,365.31z"/>
	<path d="M141.252,365.31c0,15.411-12.486,27.897-27.899,27.897c-15.411,0-27.901-12.485-27.901-27.897
		c0-15.407,12.49-27.905,27.901-27.905C128.766,337.405,141.252,349.903,141.252,365.31z"/>
	<path d="M253.93,269.712c0,3.38-2.739,6.125-6.124,6.125l0,0c-3.385,0-6.124-2.745-6.124-6.125v-18.378
		c0-3.382,2.739-6.126,6.124-6.126l0,0c3.385,0,6.124,2.744,6.124,6.126V269.712z"/>
	<path d="M489.882,357.245l-11.344-76.759c-0.567-3.848-3.174-7.107-6.803-8.5l-55.531-21.387l-32.851-65.059h60.088
		c5.959,0,10.963-4.845,10.806-10.803c-0.196-7.592-17.104-70.229-17.104-70.229c-1.354-4.54-5.611-7.716-10.353-7.716H281.645
		c-1.69,0-3.379,0.403-4.882,1.168l-36.813,18.644H10.805C4.851,116.604,0,121.45,0,127.405v231.42
		c0,5.958,4.851,10.803,10.805,10.803h61.79c0.594,0,1.165-0.238,1.571-0.673c0.407-0.429,0.619-1.008,0.588-1.599l-0.044-0.72
		c-0.031-0.44-0.06-0.878-0.06-1.326c0-21.343,17.362-38.705,38.704-38.705c21.343,0,38.708,17.362,38.708,38.705
		c0,0.448-0.035,0.886-0.063,1.326l-0.045,0.72c-0.033,0.591,0.181,1.17,0.586,1.599c0.41,0.435,0.983,0.673,1.569,0.673h187.625
		c0.598,0,1.164-0.238,1.572-0.673c0.406-0.429,0.618-1.008,0.588-1.599l-0.047-0.72c-0.031-0.44-0.06-0.878-0.06-1.326
		c0-21.343,17.365-38.705,38.702-38.705c21.343,0,38.708,17.362,38.708,38.705c0,0.448-0.031,0.886-0.064,1.326l-0.043,0.72
		c-0.031,0.591,0.183,1.17,0.59,1.599c0.407,0.435,0.972,0.673,1.571,0.673h55.943c3.145,0,6.128-1.362,8.184-3.745
		C489.428,363.508,490.345,360.36,489.882,357.245z M166.943,235.122c0,8.745-7.096,15.834-15.848,15.834H43.265
		c-8.745,0-15.835-7.089-15.835-15.834l0.008-33.78c0-8.743,7.091-15.834,15.837-15.834h107.82c8.753,0,15.848,7.091,15.848,15.834
		V235.122z M267.897,319.808c0,7.699-6.242,13.936-13.939,13.936h-45.985c-7.699,0-13.941-6.236-13.941-13.936v-120.39
		c0-7.698,6.242-13.936,13.941-13.936h45.985c7.698,0,13.939,6.237,13.939,13.936V319.808z M380.447,245.692
		c-2.097,3.284-5.721,5.269-9.613,5.269h-63.826c-6.3,0-11.407-5.111-11.407-11.411v-42.634c0-6.309,5.107-11.408,11.407-11.408
		h44.115c4.449,0,8.492,2.583,10.359,6.617l19.707,42.644C382.82,238.294,382.539,242.422,380.447,245.692z M462.408,305.499
		c-0.603,0.686-1.473,1.075-2.39,1.075h-16.98c-1.759,0-3.187-1.423-3.187-3.184v-8.487c0-12.009,12.606-14.03,19.438-11.337
		c0.99,0.382,1.606,1.395,1.74,2.447l2.149,16.979C463.293,303.901,463.01,304.816,462.408,305.499z"/>
</g>
<g>
</g>
<g>
</g>
<g>
</g>
<g>
</g>
<g>
</g>
<g>
</g>
<g>
</g>
<g>
</g>
<g>
</g>
<g>
</g>
<g>
</g>
<g>
</g>
<g>
</g>
<g>
</g>
<g>
</g>
</svg>
