<?xml version="1.0" encoding="UTF-8"?>
<!DOCTYPE svg PUBLIC "-//W3C//DTD SVG 1.1//EN" "http://www.w3.org/Graphics/SVG/1.1/DTD/svg11.dtd">
<!-- Creator: CorelDRAW 2020 (64-Bit) -->
<svg xmlns="http://www.w3.org/2000/svg" xml:space="preserve" width="210mm" height="136.34mm" version="1.1" style="shape-rendering:geometricPrecision; text-rendering:geometricPrecision; image-rendering:optimizeQuality; fill-rule:evenodd; clip-rule:evenodd"
viewBox="0 0 4794.84 3112.99"
 xmlns:xlink="http://www.w3.org/1999/xlink"
 xmlns:xodm="http://www.corel.com/coreldraw/odm/2003">
 <defs>
  <style type="text/css">
   <![CDATA[
    .fil1 {fill:black}
    .fil2 {fill:black}
    .fil0 {fill:black;fill-rule:nonzero}
   ]]>
  </style>
 </defs>
 <g id="Capa_x0020_1">
  <metadata id="CorelCorpID_0Corel-Layer"/>
  <path class="fil0" d="M4793.68 2548.63l-111.01 -751.12c-5.55,-37.65 -31.06,-69.55 -66.57,-83.18l-543.39 -209.28 -321.46 -636.63 587.98 0c58.31,0 107.27,-47.41 105.74,-105.71 -1.92,-74.29 -167.37,-687.22 -167.37,-687.22 -13.25,-44.43 -54.91,-75.51 -101.31,-75.51l-1420.3 0c-16.54,0 -33.06,3.94 -47.77,11.43l-360.23 182.44 -2242.27 -0c-58.26,0 -105.73,47.42 -105.73,105.69l0 2264.53c0,58.3 47.47,105.71 105.73,105.71l604.64 0c5.81,0 11.4,-2.33 15.37,-6.58 3.98,-4.2 6.06,-9.86 5.75,-15.65l-0.43 -7.05c-0.3,-4.31 -0.59,-8.59 -0.59,-12.98 0,-208.85 169.89,-378.74 378.73,-378.74 208.85,0 378.77,169.89 378.77,378.74 0,4.38 -0.34,8.67 -0.62,12.98l-0.44 7.05c-0.32,5.78 1.77,11.45 5.73,15.65 4.01,4.26 9.62,6.58 15.35,6.58l1835.99 0c5.85,0 11.39,-2.33 15.38,-6.58 3.97,-4.2 6.05,-9.86 5.75,-15.65l-0.46 -7.05c-0.3,-4.31 -0.59,-8.59 -0.59,-12.98 0,-208.85 169.92,-378.74 378.71,-378.74 208.85,0 378.77,169.89 378.77,378.74 0,4.38 -0.3,8.67 -0.63,12.98l-0.42 7.05c-0.3,5.78 1.79,11.45 5.77,15.65 3.98,4.26 9.51,6.58 15.37,6.58l547.42 0c30.78,0 59.97,-13.33 80.08,-36.65 20.06,-23.24 29.03,-54.04 24.5,-84.53zm-3160.08 -1195.02c0,85.57 -69.44,154.94 -155.08,154.94l-1055.16 0c-85.57,0 -154.95,-69.37 -154.95,-154.94l0.08 -330.55c0,-85.55 69.39,-154.94 154.97,-154.94l1055.06 -0c85.65,0 155.08,69.39 155.08,154.94l0 330.55zm987.87 828.68c0,75.34 -61.08,136.37 -136.4,136.37l-449.98 -0c-75.34,0 -136.42,-61.02 -136.42,-136.37l0 -1178.06c0,-75.33 61.08,-136.37 136.42,-136.37l449.98 0c75.33,0 136.4,61.03 136.4,136.37l0 1178.06zm1101.35 -725.25c-20.52,32.13 -55.98,51.56 -94.07,51.56l-624.56 0c-61.65,0 -111.62,-50.01 -111.62,-111.66l0 -417.19c0,-61.74 49.97,-111.63 111.62,-111.63l431.68 -0c43.53,0 83.1,25.28 101.37,64.75l192.84 417.29c15.96,34.49 13.21,74.89 -7.26,106.89zm802.02 585.23c-5.9,6.71 -14.41,10.52 -23.39,10.52l-166.16 0c-17.21,0 -31.19,-13.93 -31.19,-31.16l0 -83.05c0,-117.51 123.35,-137.29 190.21,-110.94 9.69,3.74 15.72,13.65 17.03,23.94l21.03 166.15c1.13,8.9 -1.64,17.85 -7.53,24.53z"/>
  <path class="fil1" d="M3451 2534.98c0,-153.46 124.4,-277.86 277.86,-277.86 153.46,0 277.86,124.4 277.86,277.86 0,153.46 -124.4,277.86 -277.86,277.86 -153.46,0 -277.86,-124.4 -277.86,-277.86zm849.03 0c0,-315.44 -255.72,-571.16 -571.16,-571.16 -315.44,0 -571.16,255.72 -571.16,571.16 0,315.44 255.72,571.16 571.16,571.16 315.44,0 571.16,-255.72 571.16,-571.16z"/>
  <path class="fil1" d="M833.18 2541.83c0,-153.46 124.4,-277.86 277.86,-277.86 153.46,0 277.86,124.4 277.86,277.86 0,153.46 -124.4,277.86 -277.86,277.86 -153.46,0 -277.86,-124.4 -277.86,-277.86zm849.03 0c0,-315.44 -255.72,-571.16 -571.16,-571.16 -315.44,0 -571.16,255.72 -571.16,571.16 0,315.44 255.72,571.16 571.16,571.16 315.44,0 571.16,-255.72 571.16,-571.16z"/>
  <circle class="fil2" cx="2038.58" cy="1609.19" r="88.64"/>
 </g>
</svg>
