<?xml version="1.0" encoding="UTF-8"?>
<!DOCTYPE svg PUBLIC "-//W3C//DTD SVG 1.1//EN" "http://www.w3.org/Graphics/SVG/1.1/DTD/svg11.dtd">
<!-- Creator: CorelDRAW 2020 (64-Bit) -->
<svg xmlns="http://www.w3.org/2000/svg" xml:space="preserve" width="296.871mm" height="131.043mm" version="1.1" style="shape-rendering:geometricPrecision; text-rendering:geometricPrecision; image-rendering:optimizeQuality; fill-rule:evenodd; clip-rule:evenodd"
viewBox="0 0 5547.31 2448.66"
 xmlns:xlink="http://www.w3.org/1999/xlink"
 xmlns:xodm="http://www.corel.com/coreldraw/odm/2003">
 <defs>
  <style type="text/css">
   <![CDATA[
    .fil2 {fill:#FEFEFE}
    .fil0 {fill:black}
    .fil1 {fill:black}
   ]]>
  </style>
 </defs>
 <g id="Capa_x0020_1">
  <metadata id="CorelCorpID_0Corel-Layer"/>
  <rect class="fil0" x="1298.17" y="-0" width="2953.83" height="2092.8" rx="93.43" ry="93.43"/>
  <path class="fil1" d="M4016.37 1811.92l500.44 0c56.5,0 102.73,46.23 102.73,102.73l0 75.41c0,56.5 -46.23,102.73 -102.73,102.73l-500.44 0 0 -280.88z"/>
  <rect class="fil2" x="1428.44" y="420.62" width="1195.88" height="729.49" rx="67.8" ry="67.8"/>
  <rect class="fil2" x="3581.03" y="420.62" width="508.25" height="729.49" rx="41.36" ry="97.31"/>
  <rect class="fil2" x="1348.15" y="211.39" width="2798.37" height="32.89" rx="33.9" ry="33.9"/>
  <path class="fil2" d="M2896.36 332.03l436.4 0c55.93,0 101.7,45.76 101.7,101.7l0 1378.19 -639.8 0 0 -1378.19c0,-55.94 45.76,-101.7 101.7,-101.7z"/>
  <path class="fil1" d="M4235.52 287.45l1194.43 282.28c83.92,20.52 101.76,35.07 110.87,53.9 8.34,17.25 12.49,35.7 -11.96,115.91l-100.65 340.14c-34.8,89.94 -99.55,138.71 -197.88,141.28l-994.81 34.05 0 -967.56z"/>
  <path class="fil0" d="M1960 2073.65c0,-100.75 81.68,-182.43 182.43,-182.43 100.75,0 182.43,81.68 182.43,182.43 0,100.75 -81.68,182.43 -182.43,182.43 -100.75,0 -182.43,-81.68 -182.43,-182.43zm557.44 0c0,-207.11 -167.89,-375 -375,-375 -207.11,0 -375,167.89 -375,375 0,207.11 167.89,375 375,375 207.11,0 375,-167.89 375,-375z"/>
  <circle class="fil1" cx="2919.02" cy="1136.28" r="72.54"/>
  <path class="fil2" d="M4466.31 487.79l803.02 177.87c58.57,14.32 71.03,24.48 77.38,37.62 5.82,12.04 8.72,24.91 -8.35,80.9l-70.25 237.4c-24.29,62.77 -69.48,96.81 -138.11,98.61l-684.24 12.86c-80.21,10.83 -115.25,-27.25 -103.61,-115.92l0 -450.62c-1.99,-69.61 41.95,-93.3 124.14,-78.72z"/>
  <path class="fil1" d="M1311.8 287.45l-1194.43 282.28c-83.92,20.52 -101.76,35.07 -110.87,53.9 -8.34,17.25 -12.49,35.7 11.96,115.91l100.65 340.14c34.8,89.94 99.55,138.71 197.88,141.28l994.81 34.05 0 -967.56z"/>
  <path class="fil2" d="M1083.91 502.72l-784.49 173.76c-57.22,14 -69.39,23.91 -75.6,36.75 -5.69,11.76 -8.52,24.34 8.15,79.03l68.63 231.92c23.73,61.32 67.87,94.58 134.92,96.33l668.44 12.56c78.35,10.58 112.59,-26.62 101.22,-113.24l0 -440.22c1.95,-68.01 -40.98,-91.14 -121.28,-76.9z"/>
  <rect class="fil1" transform="matrix(0.78269 0.622411 -0.622411 0.78269 754.542 1176.41)" width="1239.29" height="39.63"/>
  <rect class="fil1" transform="matrix(-0.78269 0.622411 0.622411 0.78269 4795.83 1176.41)" width="1239.29" height="39.63"/>
  <path class="fil1" d="M1788.56 1848.17l-574.25 0c-49.21,0 -89.47,40.26 -89.47,89.47l0 65.68c0,49.21 40.26,89.47 89.47,89.47l574.25 0 0 -244.62z"/>
 </g>
</svg>
